<svg width="30" height="30" viewBox="0 0 30 30" fill="none" xmlns="http://www.w3.org/2000/svg">
<g clip-path="url(#clip0_8_101)">
<path d="M15.0113 29.5226C23.0257 29.5226 29.5226 23.0257 29.5226 15.0113C29.5226 6.99693 23.0257 0.5 15.0113 0.5C6.99693 0.5 0.5 6.99693 0.5 15.0113C0.5 23.0257 6.99693 29.5226 15.0113 29.5226Z" fill="white"/>
<path fill-rule="evenodd" clip-rule="evenodd" d="M7.05494 14.8531C11.2818 12.9996 14.1072 11.8016 15.5312 11.2139C19.5546 9.54131 20.3909 9.24746 20.9334 9.22486C21.0464 9.22486 21.3176 9.24746 21.4984 9.38308C21.6341 9.4961 21.6793 9.65432 21.7019 9.76734C21.7245 9.88036 21.7471 10.129 21.7245 10.3324C21.4984 12.6154 20.5717 18.1984 20.0744 20.7525C19.871 21.8375 19.4641 22.1991 19.0799 22.2443C18.2436 22.3122 17.5881 21.6793 16.7743 21.1594C15.5086 20.3231 14.7853 19.8032 13.5421 18.9895C12.1181 18.0401 13.0448 17.5203 13.8585 16.6839C14.062 16.4579 17.7915 13.09 17.8593 12.7736C17.8593 12.7284 17.8819 12.5927 17.7915 12.5249C17.7011 12.4571 17.5881 12.4797 17.4977 12.5023C17.362 12.5249 15.3277 13.8811 11.3722 16.5483C10.7845 16.9552 10.2646 17.136 9.78994 17.136C9.27006 17.136 8.27552 16.8422 7.52961 16.5935C6.62548 16.2997 5.90217 16.1415 5.96998 15.6442C6.01519 15.3956 6.37684 15.1243 7.05494 14.8531Z" fill="black"/>
</g>
<defs>
<clipPath id="clip0_8_101">
<rect width="29" height="29" fill="white" transform="translate(0.5 0.5)"/>
</clipPath>
</defs>
</svg>
