<svg width="30" height="30" viewBox="0 0 30 30" fill="none" xmlns="http://www.w3.org/2000/svg">
<g clip-path="url(#clip0_8_106)">
<path d="M0.5 14.3958C0.5 7.84528 0.5 4.56999 2.535 2.535C4.56999 0.5 7.84528 0.5 14.3958 0.5H15.6042C22.1547 0.5 25.43 0.5 27.465 2.535C29.5 4.56999 29.5 7.84528 29.5 14.3958V15.6042C29.5 22.1547 29.5 25.43 27.465 27.465C25.43 29.5 22.1547 29.5 15.6042 29.5H14.3958C7.84528 29.5 4.56999 29.5 2.535 27.465C0.5 25.43 0.5 22.1547 0.5 15.6042L0.5 14.3958Z" fill="white"/>
<path fill-rule="evenodd" clip-rule="evenodd" d="M8.35465 9.5625H6.23959C5.63527 9.5625 5.5144 9.84694 5.5144 10.1605C5.5144 10.7206 6.23147 13.4985 8.85315 17.1725C10.6009 19.6816 13.0634 21.0417 15.3042 21.0417C16.6487 21.0417 16.815 20.7396 16.815 20.2193V18.3229C16.815 17.7188 16.9423 17.5982 17.368 17.5982C17.6818 17.5982 18.2195 17.755 19.4744 18.9647C20.9085 20.3985 21.1449 21.0417 21.9515 21.0417H24.0666C24.671 21.0417 24.9731 20.7396 24.7988 20.1435C24.6081 19.5493 23.9234 18.6872 23.0148 17.6654C22.5218 17.0829 21.7824 16.4557 21.5583 16.142C21.2446 15.7388 21.3342 15.5595 21.5583 15.2011C21.5583 15.2011 24.1352 11.5719 24.4041 10.3398C24.5385 9.89171 24.4041 9.5625 23.7645 9.5625H21.6494C21.1116 9.5625 20.8637 9.84694 20.7292 10.1605C20.7292 10.1605 19.6537 12.7816 18.1299 14.4842C17.6369 14.977 17.4129 15.1339 17.1439 15.1339C17.0095 15.1339 16.8149 14.977 16.8149 14.5291V10.3398C16.8149 9.80211 16.6589 9.5625 16.2106 9.5625H12.8869C12.5509 9.5625 12.3487 9.81202 12.3487 10.0486C12.3487 10.5582 13.1106 10.6758 13.1891 12.1095V15.2235C13.1891 15.9063 13.0658 16.03 12.7969 16.03C12.0799 16.03 10.3357 13.3972 9.30126 10.3846C9.09856 9.79903 8.8952 9.5625 8.35465 9.5625Z" fill="black"/>
</g>
<defs>
<clipPath id="clip0_8_106">
<rect width="29" height="29" fill="white" transform="translate(0.5 0.5)"/>
</clipPath>
</defs>
</svg>
