<svg width="30" height="30" viewBox="0 0 30 30" fill="none" xmlns="http://www.w3.org/2000/svg">
<path fill-rule="evenodd" clip-rule="evenodd" d="M25.2745 4.71412C22.5488 1.99796 18.9235 0.501378 15.0609 0.5C7.10161 0.5 0.623932 6.94591 0.621162 14.8691C0.619777 17.4019 1.28513 19.8742 2.54868 22.0529L0.5 29.5L8.15468 27.5018C10.2636 28.647 12.6384 29.2499 15.0547 29.2506H15.0609C23.0188 29.2506 29.4973 22.804 29.5 14.8808C29.5014 11.0409 28.001 7.43098 25.2745 4.71481V4.71412ZM15.0609 26.8238H15.0561C12.9028 26.8232 10.7905 26.2471 8.94746 25.1591L8.50917 24.9001L3.96663 26.0858L5.17894 21.6781L4.89369 21.2261C3.69245 19.3244 3.05756 17.1263 3.05894 14.8698C3.06172 8.28469 8.44547 2.92677 15.0658 2.92677C18.2714 2.92815 21.2845 4.17186 23.5506 6.42982C25.8167 8.68709 27.0636 11.6885 27.0622 14.8794C27.0594 21.4652 21.6757 26.8232 15.0609 26.8232V26.8238ZM21.6438 17.8788C21.2831 17.699 19.5093 16.8307 19.1783 16.7109C18.8474 16.591 18.6072 16.5311 18.3669 16.8907C18.1267 17.2504 17.435 18.0593 17.2245 18.2984C17.0141 18.5382 16.8036 18.5678 16.4428 18.3879C16.0822 18.2081 14.9197 17.8292 13.5412 16.6061C12.4688 15.6539 11.7445 14.4784 11.5341 14.1187C11.3236 13.7591 11.5119 13.5647 11.6919 13.3863C11.8539 13.2251 12.0526 12.9667 12.2333 12.7572C12.4141 12.5477 12.4736 12.3976 12.594 12.1584C12.7146 11.9186 12.6543 11.7092 12.5643 11.5293C12.4743 11.3495 11.7529 9.5821 11.4517 8.86347C11.1588 8.16342 10.8611 8.25851 10.6403 8.2468C10.4298 8.23646 10.1895 8.2344 9.9486 8.2344C9.70766 8.2344 9.31713 8.32397 8.98621 8.68365C8.65528 9.04329 7.72334 9.91216 7.72334 11.6788C7.72334 13.4455 9.01601 15.1537 9.1967 15.3935C9.37738 15.6333 11.741 19.2596 15.36 20.8155C16.2207 21.1854 16.8929 21.4066 17.417 21.572C18.2811 21.8455 19.0676 21.807 19.6893 21.7146C20.3824 21.6113 21.8239 20.8458 22.1243 20.0072C22.4248 19.1686 22.4248 18.4493 22.3348 18.2998C22.2448 18.1502 22.0039 18.06 21.6432 17.8801L21.6438 17.8788Z" fill="white"/>
</svg>
